# xmcd CD database file
#
# Track frame offsets:
#	150
#	25112
#	40987
#	53672
#	74692
#	111487
#	126957
#	152565
#	161240
#	176692
#	202487
#	227415
#
# Disc length: 3190 seconds
#
# Revision: 0
# Processed by: cddbd v1.5.2PL0 Copyright (c) Steve Scherf et al.
# Submitted via: CDex 1.51
#
DISCID=ae0c740c
DTITLE=Deepak Chopra - Relax
DYEAR=1900
DGENRE=New Age
TTITLE0=Matador de se Pena
TTITLE1=The Lover's Passion
TTITLE2=One Star
TTITLE3=Armenian Tambor
TTITLE4=The Elysian Fields
TTITLE5=Lakme
TTITLE6=Heaven and Earth
TTITLE7=Tashi Meets Pema
TTITLE8=Song from a Secret Garden
TTITLE9=Vishnu Dream
TTITLE10=Hollow
TTITLE11=Quiet
EXTD=
EXTT0=
EXTT1=
EXTT2=
EXTT3=
EXTT4=
EXTT5=
EXTT6=
EXTT7=
EXTT8=
EXTT9=
EXTT10=
EXTT11=
PLAYORDER=
